<?xml version="1.0" encoding="UTF-8"?>
<svg xmlns="http://www.w3.org/2000/svg" viewBox="0 0 2181.79 2196.83">
  <defs>
    <style>
      .cls-1 {
        fill: #fff;
        mix-blend-mode: color-dodge;
        opacity: .5;
      }

      .cls-2 {
        isolation: isolate;
      }
    </style>
  </defs>
  <g class="cls-2">
    <g id="Layer_1" data-name="Layer 1">
      <g>
        <polygon class="cls-1" points="1228.91 1378.08 1090.89 1323.61 952.87 1378.08 952.87 1313.5 1090.89 1259.03 1228.91 1313.5 1228.91 1378.08"/>
        <polygon class="cls-1" points="1228.53 1534.09 1090.51 1479.61 952.49 1534.09 952.49 1469.5 1090.51 1415.03 1228.53 1469.5 1228.53 1534.09"/>
        <polygon class="cls-1" points="1228.53 1690.09 1090.51 1635.62 952.49 1690.09 952.49 1625.51 1090.51 1571.03 1228.53 1625.51 1228.53 1690.09"/>
        <polygon class="cls-1" points="1228.91 1847.83 1090.89 1793.36 952.87 1847.83 952.87 1783.25 1090.89 1728.78 1228.91 1783.25 1228.91 1847.83"/>
        <polygon class="cls-1" points="1228.91 2003.84 1090.89 1949.36 952.87 2003.84 952.87 1939.25 1090.89 1884.78 1228.91 1939.25 1228.91 2003.84"/>
      </g>
      <g>
        <polygon class="cls-1" points="776.42 1571.08 638.4 1516.6 500.38 1571.08 500.38 1506.49 638.4 1452.02 776.42 1506.49 776.42 1571.08"/>
        <polygon class="cls-1" points="776.03 1727.08 638.01 1672.61 499.99 1727.08 499.99 1662.5 638.01 1608.03 776.03 1662.5 776.03 1727.08"/>
        <polygon class="cls-1" points="776.03 1883.09 638.01 1828.61 499.99 1883.09 499.99 1818.5 638.01 1764.03 776.03 1818.5 776.03 1883.09"/>
        <polygon class="cls-1" points="776.42 2040.83 638.4 1986.36 500.38 2040.83 500.38 1976.24 638.4 1921.77 776.42 1976.24 776.42 2040.83"/>
        <polygon class="cls-1" points="776.42 2196.83 638.4 2142.36 500.38 2196.83 500.38 2132.25 638.4 2077.78 776.42 2132.25 776.42 2196.83"/>
      </g>
      <g>
        <polygon class="cls-1" points="1686.02 1481.5 1548 1427.03 1409.98 1481.5 1409.98 1416.92 1548 1362.44 1686.02 1416.92 1686.02 1481.5"/>
        <polygon class="cls-1" points="1685.63 1637.5 1547.61 1583.03 1409.59 1637.5 1409.59 1572.92 1547.61 1518.45 1685.63 1572.92 1685.63 1637.5"/>
        <polygon class="cls-1" points="1685.63 1793.51 1547.61 1739.03 1409.59 1793.51 1409.59 1728.92 1547.61 1674.45 1685.63 1728.92 1685.63 1793.51"/>
        <polygon class="cls-1" points="1686.02 1951.25 1548 1896.78 1409.98 1951.25 1409.98 1886.67 1548 1832.19 1686.02 1886.67 1686.02 1951.25"/>
        <polygon class="cls-1" points="1686.02 2107.25 1548 2052.78 1409.98 2107.25 1409.98 2042.67 1548 1988.2 1686.02 2042.67 1686.02 2107.25"/>
      </g>
    </g>
  </g>
</svg>