<?xml version="1.0" encoding="UTF-8"?>
<svg id="Layer_1" data-name="Layer 1" xmlns="http://www.w3.org/2000/svg" viewBox="0 0 477.05 241.43">
  <defs>
    <style>
      .cls-1 {
        fill: #b2dbb3;
      }
    </style>
  </defs>
  <g>
    <path class="cls-1" d="M195,25.44c1.78,1.79-4.6,3.82-5.58,3.96-4.36.62-5.97-.43-5.42-4.96.43-.44,10.4.4,11,1.01Z"/>
    <path class="cls-1" d="M201.99,43.44v5s-5.99-.01-5.99-.01c-1.21-1.04,3.81-6.26,5.99-4.99Z"/>
    <path class="cls-1" d="M99.99,108.44c-1.26,3.12-5.42,1.78-8,1.98,1.1-4.89,4.18-2.8,8-1.98Z"/>
    <g>
      <path class="cls-1" d="M92.78,122.69c.2.11.18,1.71.82,1.8,1.3.19,4.45-1.18,6.88-1.14,8.09.12,7.67,3.22,12.58,6.51,3.54,2.37,7.8,4.12,10.95,7.05,2.29,2.13,5.54,8.32,6.98,9.02,5,2.44,16.79.39,18.79,9.21,1.54,6.81-3.48,27.42-9.42,31.16-2,1.26-5.36,1.26-6.83,3.17-2.87,3.74-1.26,19.01-11.54,16.96,4.41,9.42-6.06,6.45-7.85,11.67-1.01,2.95,1.73,1.6,1.95,3.77.39,3.89-1.59,7.8-1.14,12.07.3,2.86,2.22,4.65,2.04,7.47-10.67-3.28-15.07-19.91-16.74-29.75-1.29-7.55-.86-16.09-2.37-23.63-2.96-14.77-19.13-23.92-17.87-39.11.49-5.95,4.02-13.14,1.33-19.31-.68-1.56-2.59-.58-2.34-2.19,5.45,4.63,10.62-6.46,13.78-4.75Z"/>
      <path class="cls-1" d="M199.99,2.44l-9.47,10.02c-2.8,2.42-5.98.8-3.52,4.97h-3.03c-.12.1,1.08,1.79.97,1.94-.52.66-12.97,4.15-15.84,5.68-3.23,1.73-11.13,9.19-13.58,9.31-7.2.36-7.67-7.46-5.89-12.78.93-2.77,3.33-3.25,3.41-3.68.95-5.07-12.62-6.03-10.54-12.44l-19.09,5.94-7.41-.97,6.99-2c.16-1.89-5-.52-4.97-2.49.05-3.58,9.76-1.85,11.97-.51.59-1.28-4.22-1.1-2-2.99.25-.21,5.45-.9,6.52-.99,13.43-1.17,36.72-1.96,50.02-1.05,5.19.36,10.12,2.69,15.46,2.04Z"/>
      <path class="cls-1" d="M134.87,24.31c-.6.93-4.75.61-5.68,1.38-.31.26-.13,1.58-.61,2.27-.78,1.12-1.94,3.74-3.06,3.45-1.5-.4-3.41-3.1-5.53-3-.63-.91,6.59-4.27,3.09-8.58-2.45-3.02-9.05.66-11.08-4.39,4.54-.19,11.98-1.64,16.02-.54,3.28.89,9.26,5.69,6.84,9.41Z"/>
      <path class="cls-1" d="M83.73,12.76c.26.12.24,1.49.95,1.65,2.49.58,7.52-.84,9.37.46,1.05.74,1.37,3.92.89,4.51-.71.86-12.58,1.5-14.28,1.1-1.29-.31-1.18-3.74-2.61-4.58-.85-.5-4.48,1.13-6.05.53-.21-4.03,9.58-4.67,11.73-3.67Z"/>
      <path class="cls-1" d="M132.99,50.43c-.33,2.8,5.15,5.99-.51,7.02-8.62,1.56-4.98-5.9.51-7.02Z"/>
      <path class="cls-1" d="M96.99,10.45l-8.99,1.98c-.12-4.37,6.64-2.87,8.99-1.98Z"/>
      <g>
        <path class="cls-1" d="M105.99,14.43c-.7,4.51.91,6.92,5.54,7.08,1.2.04,7.24-2.03,4.46.91-.97,1.02-10.2,1.32-5,6-5.1-3.3-24.29,6.37-20.87,11.89.75,1.2,9.43,2.83,9.77,3.21.94,1.07-1.46,5.42,1.59,4.9,4.55-3.69,9.74-16.03,16.81-14.82,1.6.27,2.84,1.99,4.46,2.58s3.76-.14,5.26.73c.54.31,4.99,8.07,4.83,8.87-.75,3.9-11.02,7.8-14.85,6.66,1.08,1.53,3.67,6.49,2.59,8.02-.65.92-7.69,3.83-4.58-.02-16.44,4.66-26.66,20.75-34.51,34.99-1.8-3.17-1.3-6.86-5.99-7.08-2.08-.1-11.96,1.38-13.98,2.12-8.61,3.12-8.81,19.84-2.25,18.84,2.7-.41,6.51-5.54,9.21-4.87,3.12.77-.47,4.58-.09,7.04.49,3.18,3.47,4.6,4.63,7.46,2.59,6.39-3.08,1.08-5.13.12-7.7-3.61-19.8-6.19-24.71-13.28-1.73-2.49-3.63-5.66-5.14-8.07-1.23-1.95-2.19-5.89-3.54-7.31-1.69-1.79-3.66,1.42-5.93-2-3.78-5.69-3.65-13.91-1.06-19.95,3.01-7.02,3.43-7.66,5.53-15.3.23-.84,1.95-.68,1.98-1.27.12-1.91-3.89-15.86-5.27-17.17-4.91-4.67-21.61,3.66-27.24,5.75l1.48-2.99-3.98-2.51c2.89-3.86,7.63-5.06,11.99-6.52l-1.99-1.97c1.46-1.05,7.24-1.75,7.78-2.22.94-.81.06-4.49,4.92-5.57,5.57-1.24,20.31-.44,26.77-.21,12.08.43,32.79,5.26,43.03,4.01,8.2-1,6.64-5.46,8.49-7.02,2.25-1.89,1.5,2.49,2.97,1.99l2.01-2.99Z"/>
        <path class="cls-1" d="M108.5,22.43c.65.33.65.67,0,1v-1Z"/>
      </g>
    </g>
  </g>
  <g>
    <path class="cls-1" d="M428,165.44c.4.54-4.46,8.36,2.46,6.96,3.85-.78,4.07-3.91,5.45-6.55.38-.73.38-3.23,2.08-1.43.35.37,1.81,8.18,2.53,9.98,3.58,8.9,10.16,14.78,4.88,24.92-3.09,5.94-13.95,15.17-20.84,15.04-5.48-.1-3.39-4.72-5.07-6.96-.74-.98-2.6-.74-3.15-1.3-1.32-1.34-1.82-3.87-4.06-4.51-5.83-1.66-25.9,12.1-27.26-1.75-1.02-10.41,17.24-28.24,26.96-29.98,1.41-.25,3.36.76,3.86.46.56-.34,2.06-4.86,4.89-5.7,1.45-.43,6.8.15,7.29.82Z"/>
    <path class="cls-1" d="M423.75,144.72c.28.12.31,1.78,2.14,2.29,5.59,1.53,11.44-.64,17.08,3.96l7.03,11.46c-4.96-2.78-9.39-1.41-14.4-2.09-8.41-1.14-3.83-4.87-5.79-6.68-1.26-1.17-7.5-1.78-7.81-2.24-.51-.75.89-2.77.78-3.55-.2-1.47-3.8-.63-2.78-3.43,1.29,0,2.5-.26,3.75.28Z"/>
    <path class="cls-1" d="M399.79,132.64c1.5,2.45-1.33,16.21-7.26,16.86-17.77,1.94,2.37-18.79,3.95-18.83.19,0,3.21,1.81,3.31,1.97Z"/>
    <path class="cls-1" d="M287.99,166.44c1.05,4.91-1.49,25.59-9.02,23.59-7.62-2.03,1.5-15.26,4.21-18.91,1.2-1.62,2.56-5.03,4.81-4.68Z"/>
    <path class="cls-1" d="M410,81.43c.13-.15-.16-1.31.3-1.66,4.55-3.5,8.13-3.52,8.2-11.33,1.62,1.7,4.71,9.29,3.36,10.87-.82.95-9.64,2.45-10.38,7.13-1.27.31-2.92-1.65-3.31-2.68-1.19-3.15,1.69-2.15,1.83-2.32-1.06,1.06.88,3.11,1.99,1.99s-.93-3.06-1.99-1.99Z"/>
    <path class="cls-1" d="M408,144.44c.38.36-1.05,6.61-1.99,7.51-2.45,2.38-1.47-1.95-3.01-1.51.54,5.71-4.6,3.33-4-1.42.74-5.81,4.34-5.65,9-4.58Z"/>
    <path class="cls-1" d="M465.99,218.44c1.8,1.63-11.39,12.73-14.99,9.99-1.86-1.41,1.42-2.23,1.89-2.57,1.79-1.32,11.81-8.58,13.1-7.42Z"/>
    <path class="cls-1" d="M393.99,159.43c-.63.53-14.9-.5-13.99-4.99,4.19.61,13.41-.68,13.99,4.99Z"/>
    <path class="cls-1" d="M473.99,206.43c.14.16.17,2.73.69,3.78.75,1.53,2.19,1.17,2.26,1.28,1.15,1.97-6.8,8.09-7.93,6.94,1.48-3.38,1.95-7.05,2.97-10.54.32-1.08.43-3.19,2.02-1.46Z"/>
    <path class="cls-1" d="M407,48.44c2.69-.42,3.99,1.19,5.43,3.06.55.71,5.01,8.16,2.07,7.91-1.14-.1-6.58-9.19-7.5-10.97Z"/>
    <path class="cls-1" d="M421.99,65.43c-2.61-.2-3.72-.61-4.49,2-8.8-12.92,6.97-3.97,4.49-2Z"/>
    <path class="cls-1" d="M411.99,132.43l-6.99-2.49c3.95-5.15,7.76-4.89,6.99,2.49Z"/>
    <path class="cls-1" d="M403.99,117.43c-3.06,1.07-6.66-7.45-3.48-7.99,2.93-.5,3.99,6.11,3.48,7.99Z"/>
    <path class="cls-1" d="M427.99,217.44c.46,3.18-1.87,5.45-4.99,4.99.09-4.01.69-5.81,4.99-4.99Z"/>
    <path class="cls-1" d="M369.83,127.64c.65.38,7.46,11.5,6.17,12.78-.49.48-3.33-.95-2.99,1,7.72.88,9.02,16.75.97,9.53-3.85-3.44-8.11-12.43-10.95-17.03,1.6.28,4.44,1.39,5.74,2.19,1.53.94.71,2.46,2.23,2.31l-3.98-10.51c.13-.93,2.23-.61,2.81-.28Z"/>
    <g>
      <path class="cls-1" d="M206.99,37.43c-1.46,3.41,6.44,10.87,5,12.99l-8,1c1.4-4.09-2.88-13.22,3-13.99Z"/>
      <path class="cls-1" d="M436.99,24.44c-4.73-2.12-8.74-5.21-14.58-5.93-25.33-3.13-65.82,1.78-86.78-7.68-3.21-1.45-7.63-3.21-11.14-3.2-2.55,0-19.13,3.71-20.27,5.09-1.42,1.72,1.22,3.81-6.22,2.71-1.12,3.64,2.59,3.56,3.52,4.97,2.18,3.32-1.59,3.94-4.52,4.01,2.45-4.95-.25-9.1-6-7.98l.99,3.99c-7.26-1.42-14,1.42-20.55,2.05-2.16.21-4.58-1.05-5.84-.82-1.04.19-2.94,2.71-4.26,3.65-2.62,1.88-4.15-.35-2.36,4.12l-5.98-4.51,5.99-1.5c-11.08-10.19-23.44-6.77-33.03,3.48-.76.82-6.75,7.87-5.97,8.52,2.22.14,4.95-.51,7,.5,2.94,1.45.93,6.54,3.48,5.5,7.93-3.26,2.51-16.05,11.51-14.98-1.11,2.09-3.7,3.13-3,5.98.67,1.02,12.52.43,9.99,3.99-.33.47-8.82,5.02-10,5.51-4.41,1.85-14.16,5.89-15.49-.49-4.3,5.68-10.98,12.82-18.51,13-.81,2.85,2.38,1.94,3.54,3.95,3.32,5.78-9.55,2.58-11.81,7.26-1.51,3.14-1.26,8.66,1.97,10.58,9.29,5.53,13.57-12.71,20.88-13.79,9.27-1.38,11.83,9.93,13.92,9.97,6.16.12-7.12-10.87-4.49-12.98,6.7,2.2,8.39,8.79,13.52,12.98,2.06.67,1.31-1.42,2.42-2.48,2.93-2.78,6.68-2.21,7.05-2.51.31-.25-3.1-4.05,1.47-7.03,1.58-1.03,11.35-3.8,12.53-2.95-.9,1.71-2.55,2.74-2,4.98,1.78.12,6.65,1.85,6.99,3.53,1,4.87-11.99,1.18-14.41,1.49-2.63.34-7.95,3.02-6.12,6.03,2.4,3.96,13.04,2.46,13.54,2.96.39.38.03,5.71-.53,6.98-3.15,7.22-17.14.21-22.18.3-1.79.03-2.79,1.38-4.01,1.53-1.3.17-11.8-3.41-12.15-3.95-.7-1.1.16-4.31-.13-5.87-9.3.37-17.94,1.54-25.91,6.59-12.32,7.81-22.51,30.07-13.52,43.34,10.94,16.16,31.57.38,38.3,12.7,9.36,17.16,2.17,45.59,11.58,62.42,5.65,10.09,19.34,3.21,23.58-4.52,2.84-5.18,2.27-11.38,4.77-16.23,2.4-4.66,7.38-5.81,8.75-12.24,1.22-5.74-.78-8.74-.65-13.56.29-10.19,16.02-15.93,18.09-30.02.42-2.85-3.38-.34-5.48-.39-12.72-.27-21.56-22.45-24.02-33.05,4.88-.5,4.27,3.28,6.71,7.27,2.63,4.3,5.84,8.27,8.34,12.66,3.37,5.93.44,9.02,10.74,6.81,6.56-1.4,20.55-13.72,13.72-20.76,6.34-.29,13.63.73,18.57,4.95.87.74,1.21,2.66,1.63,2.92.63.4,2.47-1.32,3.32.06.91,1.48,2.01,10.01,3.02,13.02,1.25,3.75,5.35,15.87,9.24,8.32,3.47-6.75.88-15.98,10.85-21.15,10.4-5.4,8.65,6.09,12.37,8.44,1.81,1.14,4.5-1.04,4.99-.58.53.49,1.41,9.74,3.51,11,4.16-9.93,8.22,3.8,9.98,3.95,5.28-1.92,5.6-9.16,3.76-13.69-1.12-2.75-5.51-4.86-4.24-9.25,22.64,4.84,17.86-14,15.96-28.97-1.89.18-7.34-.78-6.96-3.52l9.35.67c9.19,10.52,6.87-2.81,9.14-9.19,1.45-4.08,4.48-3.99,3.1-10.05-1.45-6.37-7.24-9.81-13.59-8.95-1.37-12.64,17.04-7.32,17.96-8.02.38-.29.76-6.29,5.41-4.9,2.63.79,2.82,18.44,11.62,18.93.36-5.41-3.34-9.64-4.99-14.47.45-2.2,11.45-1.75,12.98-5.03l-4.98-2.51,4.99-3.97ZM278.93,62.96c-.27-5.54,3.77-5.76,8.06-4.52.71,3.1-3.93,2.22-2.99,4.48.92,2.22,8.8,4.53,5.48,11.5-3.39,7.1-5.4-3.62-6.02-4.95-1.11-2.38-4.32-2.49-4.52-6.51ZM295.85,97.28c-2,3.26-12.76-2.24-11.85-6.84.66-.62,11.48,2.63,11.87,3.1.35.42.33,3.15-.03,3.74Z"/>
    </g>
  </g>
</svg>