<?xml version="1.0" encoding="UTF-8"?>
<svg id="Layer_1" data-name="Layer 1" xmlns="http://www.w3.org/2000/svg" viewBox="0 0 75.32 79.04">
  <defs>
    <style>
      .cls-1 {
        fill: #d47d90;
        fill-rule: evenodd;
      }

      .cls-2 {
        fill: none;
        stroke: #000;
        stroke-miterlimit: 10;
        stroke-width: 6px;
      }
    </style>
  </defs>
  <path d="M70.85,27.65s.02-.08.03-.13h-.07c-1.64-5.38-4.57-10.29-8.65-14.36-6.55-6.55-15.25-10.15-24.51-10.15s-17.96,3.61-24.51,10.15c-6.55,6.55-10.15,15.25-10.15,24.51s3.61,17.96,10.15,24.51c6.55,6.55,15.25,10.15,24.51,10.15s17.96-3.6,24.51-10.15c6.55-6.55,10.15-15.25,10.15-24.51,0-3.44-.5-6.81-1.46-10.01ZM60.12,60.13c-6,6-13.98,9.31-22.46,9.31s-16.46-3.3-22.46-9.31c-6-6-9.31-13.98-9.31-22.46,0-4.01.74-7.91,2.15-11.55.55,1.35,1.47,2.44,2.41,3.43,1.68,1.76,3.53,3.38,5.51,4.8.28.2.7.5.76.67.17.5.13,1.13.09,1.85-.07,1.14-.16,2.57.62,4.06.53,1.01,1.27,1.78,1.98,2.53.78.82,1.46,1.53,1.69,2.36.16.59.1,1.31.04,2.07-.07.88-.15,1.88.09,2.89.32,1.37,1.14,2.43,1.85,3.38.53.69,1.03,1.35,1.27,2.02.19.52.26,1.15.33,1.81.07.61.13,1.24.3,1.89.46,1.79,1.91,3.51,3.85,3.51.1,0,.2,0,.3-.01,2.02-.18,3.41-2.08,3.63-4.96.09-1.11.21-2.63.89-2.98.15-.07.39-.13.64-.2.59-.14,1.4-.34,2.04-1,1.17-1.2.85-2.72.61-3.82-.09-.43-.18-.84-.17-1.15.02-.87.97-1.75,1.87-2.51l4.24-3.62c1.38-1.17,1.89-3.21,1.27-5.1-.46-1.39-1.5-2.66-3-3.66-1.83-1.22-3.7-1.53-5.27-.88-.53.22-.96.53-1.35.8-.36.25-.73.51-.95.53-.23.01-.63-.29-.92-.82-.18-.33-.33-.72-.49-1.14-.19-.5-.39-1.02-.68-1.54-1.5-2.7-3.84-2.99-5.91-3.24-.34-.04-.69-.08-1.04-.14-2.17-.33-4.29-1.34-5.83-2.75-.19-.18-.26-.26-.28-.29,0,0,0-.01,0-.02.19-.44,1.92-1.07,2.88-1.04.27,0,.56.04.87.08.8.09,1.71.19,2.66-.07.97-.27,1.69-.84,2.33-1.34.2-.16.39-.3.57-.43.51-.36,1.2-.41,2-.48,1.58-.13,4.23-.35,4.64-4.29.21-2.09-.58-4.04-1.22-5.6-.67-1.64-1.35-3.36-1.91-5.17,1.2-.24,2.42-.42,3.66-.52.07.16.14.31.21.47.28.63.55,1.22.65,1.8.35,2.07,1.35,3.58,2.82,4.25.53.24,1.09.35,1.66.35,1.34,0,2.7-.63,3.61-1.76.74-.91,1.38-2.68,1.64-4.25,1.58.4,3.11.92,4.6,1.56-.4.41-.83.83-1.26,1.25-1.01.99-2.05,2.01-2.75,2.91-.28.36-.69.9-.81,1.64-.2,1.27.59,2.28.97,2.77.59.76,1.48,1.9,2.91,2.26.31.08.61.11.9.11,1.1,0,2.06-.48,2.87-.87.59-.29,1.15-.57,1.62-.6.46-.04,1.01.14,1.64.35.67.22,1.43.47,2.27.5,1.35.05,2.48-.59,3.26-1.79,2.72,3.15,4.76,6.75,6.05,10.62-.21.15-.65.17-1.66.19-.44,0-.94.01-1.47.05-1.48.11-2.63-.31-3.96-.8-.89-.33-1.82-.67-2.92-.89-2.78-.55-5.65,1-7.32,3.96-.3.54-2.9,5.33-.98,7.98.72.99,1.74,1.6,2.55,2.09,1.16.7,2.36,1.41,3.69,1.95.28.11.57.22.85.32,1.01.37,1.96.73,2.43,1.37.39.54.52,1.38.4,2.59-.09.92-.44,1.85-.8,2.84-.81,2.21-1.82,4.97.55,7.68.68.77,1.49,1.36,2.38,1.75-.45.51-.92,1.02-1.41,1.51Z"/>
  <circle class="cls-2" cx="37.66" cy="37.67" r="34.66"/>
  <path class="cls-1" d="M53.43,56.45c2.08-2.16,3.53-4.03,6.73-4.4,6-.69,11.52,5.46,8.49,11.5-.86,1.72-2.62,3.77-4.56,5.78-2.13,2.21-4.49,4.37-6.14,6.01l-3.14,3.11c-.76.76-1.99.77-2.76.02l-2.33-2.25c-4.48-4.32-11.79-9.75-12.03-16.48-.17-4.71,3.55-7.74,7.83-7.68,3.82.05,5.43,1.95,7.92,4.38h0Z"/>
</svg>