<?xml version="1.0" encoding="UTF-8"?>
<svg id="Layer_1" data-name="Layer 1" xmlns="http://www.w3.org/2000/svg" viewBox="0 0 69.32 79.04">
  <defs>
    <style>
      .cls-1 {
        fill: #d47d90;
        fill-rule: evenodd;
      }
    </style>
  </defs>
  <g>
    <path d="M36.42,75.32h-3.68c-12.01-.63-23.27-6.84-30.13-16.72-.71-1.02-1.91-2.46-1.58-3.73.46-1.74,3.14-5.38,4.41-6.76,3.21-3.49,10.28-7.75,15.13-7.59,1.33.04,3.38,1.81,4.7,2.47,5.82,2.89,12.8,2.93,18.64.05,2.06-1.02,3.19-2.59,5.66-2.43,4.8.32,10.8,3.83,14.05,7.27,1.32,1.4,4.31,5.3,4.67,7.1.18.87-.86,2.25-1.35,3-6.6,10.19-18.48,16.73-30.54,17.34Z"/>
    <path d="M33.3.05c15.21-1.09,25.86,15.24,18.59,28.74-6.66,12.37-23.87,13.93-32.59,2.83C9.61,19.28,17.78,1.16,33.3.05Z"/>
  </g>
  <path class="cls-1" d="M50.43,56.45c2.08-2.16,3.53-4.03,6.73-4.4,6-.69,11.52,5.46,8.49,11.5-.86,1.72-2.62,3.77-4.56,5.78-2.13,2.21-4.49,4.37-6.14,6.01l-3.14,3.11c-.76.76-1.99.77-2.76.02l-2.33-2.25c-4.48-4.32-11.79-9.75-12.03-16.48-.17-4.71,3.55-7.74,7.83-7.68,3.82.05,5.43,1.95,7.92,4.38h0Z"/>
</svg>