<?xml version="1.0" encoding="UTF-8"?>
<svg id="Capa_1" data-name="Capa 1" xmlns="http://www.w3.org/2000/svg" viewBox="0 0 800 799.87">
  <path d="M752.12,50.78c-.5-.54-.99-1.05-1.48-1.53h-.01s-.02-.04-.03-.05c-.24-.25-.5-.5-.76-.75C718.27,16.76,668.14,0,604.73,0c-70.33,0-155.33,20.78-239.34,58.5-89.73,40.29-173.91,97.36-243.45,165.03C44.26,299.12,2.13,388.08.08,480.81c-1.87,84.88,30.34,165.78,90.7,227.81l.48.48c60.15,58.53,138.59,90.77,220.88,90.77h.03c95.2,0,186.55-42.16,264.18-121.93,94.43-97.04,168.48-223.86,203.17-347.94,34.89-124.84,24.87-226.36-27.39-279.21ZM81.38,613.33c-21.79-40.17-32.86-85.11-31.84-131.43,1.75-79.48,38.72-156.57,106.9-222.91,126.77-123.36,311.11-209.52,448.29-209.52,20.29,0,38.6,1.93,54.68,5.71-40.75,19.03-88.31,50.25-127.47,78.18-87.77,62.61-183.79,144.34-270.36,230.13-74.09,73.42-129.71,144.1-160.85,204.41-8.7,16.85-14.98,31.92-19.35,45.42ZM126.06,673.81c-5.21-7.3-7.43-32.73,18.63-83.2,20.08-38.89,62.7-103.76,151.72-191.97,86.69-85.91,182.37-167.11,269.41-228.65,83.03-58.7,127.86-77.77,146.16-82.1-4.33,18.3-23.4,63.14-82.1,146.16-61.54,87.04-142.74,182.72-228.65,269.41-88.21,89.01-153.08,131.63-191.97,151.72-50.47,26.06-75.9,23.84-83.2,18.62ZM731.86,316.68c-32.53,116.36-102.13,235.46-190.98,326.76-68.1,69.98-147.18,106.96-228.72,106.96h-.03c-44.17,0-87.06-11.09-125.53-31.92,13.49-4.36,28.54-10.65,45.36-19.33,60.31-31.14,130.99-86.76,204.41-160.85,85.79-86.57,167.52-182.59,230.13-270.36,27.88-39.08,59.02-86.5,78.06-127.18,10.53,45.25,6.52,107.14-12.71,175.93Z"/>
</svg>