<?xml version="1.0" encoding="UTF-8"?>
<svg id="Layer_1" data-name="Layer 1" xmlns="http://www.w3.org/2000/svg" viewBox="0 0 568.34 555.99">
  <path d="M513.27,351.89c-15.49-17.2-34.29-34.95-52.95-48.58,28.72-56.13,34.57-134.45-24.06-173.39,27.28-29.83,51.9-86.68,20.49-121.51-15.94-17.68-40.52-5.55-32.57,18.57,1.63,4.93,5.94,8.96,6.82,14.18,3.7,22.08-6.78,41.75-21.4,57.19-6.61-5.65-12.01-12.48-18.88-17.9-78.05-61.59-177.42,2.93-239.96,56-34.15,28.98-66.88,62.7-92.34,99.66C7.47,310.07-21.61,426.33,19.51,510.65c4.75,9.74,18.36,13.45,28.21,16.79,40.09,13.56,83.4,13.29,124.7,5.67,37.06-6.84,71.31-20.66,104.22-38.61,6.3,8.33,7.4,17.8,14.09,25.93,46.6,56.69,165.76,36,222.18,4.16,17.27-9.75,48.79-34.51,54.04-53.96,9.37-34.69-31.08-93.64-53.68-118.74ZM270.6,455.52c-50.39,34.84-109.92,51.32-171.35,45.89,24.9-16.51,50.23-32.3,73.9-50.59,10.82-8.36,38.64-29.39,45.65-39.35,8.5-12.09.72-31.84-15.05-32.12-14.04-.25-30.07,18.44-41.02,27.05-11.8,9.27-24.01,18.03-36.16,26.84l-54.32,34.17c30.83-63.47,71.63-122.23,119.97-173.52,7.02-7.45,17.16-15.3,23.43-22.57,12.22-14.17-6.09-38.41-23.4-31.4-7.77,3.15-30.65,28.86-37.52,36.48-32.27,35.78-60.57,75.01-86.29,115.71l-29.18,53.3c-11.88-84.13,25.9-163.72,80.47-225.01,46.22-51.9,146.26-142.11,221.3-119.27,29.22,8.9,28.26,24.35,44.78,44.22,11.81,14.2,31.82,14.36,42.98,36.02,17.32,33.64,7.78,68.1-5.58,101.02-11.04-2.87-21.71-9.07-33.46-9.07-10.98,0-23.26,6.38-33.22,10.39-40.68,49.6-81.55,105.24-85.93,171.8ZM472.49,504.17c-35.14,13.57-72.56,21.72-110.31,14.81-4.73-.87-31.05-9.01-29.55-14.61,5.09-8.08,10.84-15.75,17.09-22.96,6.11-7.04,16.35-15.09,21.52-22.48,6.47-9.23,2.59-24.57-7.77-29.25-17.56-7.93-30.28,11.65-41.75,21.73l-6.48,9.01c-1.41-40.04,19.28-77.75,42.99-108.5l4.18,5.83c20.66,43,52.84,85.2,91.51,113.49,12.02,8.8,26.86,18.8,41.32,22.19-6.33,4.64-15.21,7.83-22.75,10.74ZM528.31,465.98c-6.52,4.52-38.07-11.82-44.98-16.14-31.68-19.84-74.04-66.37-87.85-101.15-1.64-4.13-10.29-29.19-8.23-31.27,37.1,5.09,65.64,31.08,90.51,56.99,18.86,19.65,38.22,41.6,47.23,67.77,2.55,7.4,6.21,16.11,3.32,23.81Z"/>
  <path d="M255.74,183.34c-11.35.04-32.25,20.69-30.08,32.12,2.28,11.99,15.52,18.24,26.85,14.73,5.98-1.85,17.04-11.17,20.72-16.28,4.64-6.43,5.97-20.85-.28-26.2-1.85-1.59-14.46-4.38-17.22-4.37Z"/>
</svg>