<?xml version="1.0" encoding="UTF-8"?>
<svg id="Layer_1" data-name="Layer 1" xmlns="http://www.w3.org/2000/svg" viewBox="0 0 352.4 383.36">
  <path d="M349.57,50.14c6.66-17.32,1.56-40.91-15.33-50.14h-6.74c-4.96,3.18-8.43,5.98-8.28,12.37.14,6.36,4.33,7.79,6.81,12.69,9.69,19.13-12.71,29.79-22.85,42.28-7.59-6.88-13.08-14.56-22.59-19.3-46.55-23.19-123.42,17.89-161.84,45.23-37.44,26.64-61.3,56.39-82.81,96.84-23.4,43.99-58.15,136.12-16.48,177.45,31.64,31.39,107.79,8.68,144.31-5.46,64.56-24.98,105.98-54.5,143.84-112.91,28.66-44.22,65.71-123.08,10.89-162.03l.52-1.89c10.45-10.28,25.18-21.16,30.56-35.14ZM46.67,223.31c14.9-33.75,37.07-70.08,65.24-94.19,31.54-26.99,97.42-66.46,139.64-64.02,1.03.06,12.75,1.47,11.57,3.02-24.66,11-47.43,27.45-68.79,43.88-61.08,46.99-111.55,102.53-152.34,168.03l-17.65,31.37c.19-30.31,10.2-60.64,22.32-88.08ZM273.17,255.94c-20.61,27.35-40.52,45.32-70.66,61.83-37.67,20.65-81.36,36.45-124.27,40.77l34.37-19.89c64.24-40.03,119.1-88.34,165.04-148.6,3.19-4.18,8.86-10.75,11.07-15.13,6.84-13.52-9.23-25-20.32-12.84-9.52,10.43-18.63,24.37-28.08,35.54-40.62,48.01-84.27,84.95-137.43,118.57-16.81,10.63-45.8,28.74-64.81,32.51-1.27.25-1,.21-1-1-.09-17.63,31.14-64.25,42.07-79.96,39.82-57.24,85.13-104.07,141.42-145.27,19.18-14.04,40.61-29.44,63.57-36.08,2.22,5.21,2.75,10.48,7.95,13.8,10.44,6.66,18.28,7.18,25.08,19.83,20.42,37.98-20.95,105.36-43.98,135.92Z"/>
</svg>