<?xml version="1.0" encoding="UTF-8"?>
<svg id="Capa_1" data-name="Capa 1" xmlns="http://www.w3.org/2000/svg" viewBox="0 0 516.83 683.31">
  <path d="M286.31,475.56c-.9-1.74-1.38-4.47-2.63-5.88-5.65-6.38-19.85-4.18-21.46,5.43l-.23,111.77c-2.01,17.93-26.23,16.86-28.03,2.02-1.46-12.07,1.56-23.2-2.03-35.97-10.22-36.35-66.55-33.32-71.94,5.95-3.6,26.24,3.18,60.15-.12,86.88-1.86,15.1-21.67,16.9-27.68,3.9-2.27-29.42,2.3-61.75-.18-90.82-1.66-19.56-23.76-17.46-25.08-3.01-2.76,30.13,2.15,64.46.06,95.04,9.99,45.82,74.35,42.78,77.98-7,1.95-26.85-1.48-55.85.07-82.93,1.81-11.43,22.16-12.98,23.95,2.94,1.28,11.42-1.84,22.76,1.72,34.28,12.45,40.29,72.69,34.27,76.32-11.24,2.83-35.49-1.63-75.55-.72-111.35Z"/>
  <path d="M513.52,57.4c9.95-12.05-4.53-27.42-17.02-18.02l-188.51,188.56h-1.98c-3.5-3.9-6.78-7.86-10.49-11.59-1.95-1.96-7.25-4.09-6.42-7.27L478.87,18.74c2.34-4.55,1.47-11.4-2.21-15.03-4.27-4.22-11.38-5.08-16.16-1.35l-191.52,191.56c-2.22,1.11-11.48-6.22-14.3-7.72-26.7-14.19-45.55-14.84-71.98.37-3.88,2.23-16.03,12-18.46,12.6-3.29.81-12.91-2.88-17.69-2.83-21.82.21-45.95,21.26-44.54,44.04-23.14.53-43.63,20.81-44.01,43.99-24.99.29-48.66,25.97-42.7,51.21.82,3.47,4.09,9.31,3.56,12.06-.44,2.26-9.12,13.45-11.02,17.07-12.69,24.05-8.84,41.9,3.65,64.69,21.99,40.13,85.05,104.68,135.51,82.47,4.94-2.17,20.4-13.89,22.69-14.28,1.36-.23,5.39,2.52,7.52,3.09,28.88,7.78,52.91-14.15,55.9-42.2,23.55-.29,41.08-20.5,44.12-42.9,25.21-1.67,45.69-26.5,42.68-51.59-.36-2.99-3.14-8.84-2.71-10.87.56-2.63,14.27-20.47,17-26.06,10.24-20.98,9.49-38.92-.63-59.72-1.4-2.88-11.57-17.91-11.09-18.97l191.07-190.96ZM124.49,492.17c-12.21.32-32.8-12.75-42.82-19.98-20.63-14.89-45.63-43.41-54.55-67.45-6.11-16.44,2.02-26.82,9.89-40.37,43.94,31.62,82.85,71.01,114.94,114.39-6.99,6.13-17.81,13.15-27.46,13.41ZM226.72,432.14c-4.77-2.32-21.68-27.07-26.75-33.25-13.28-16.17-27.51-31.43-42.6-45.91-4.26-4.08-11.93-13.66-17.34-15.14-11.55-3.16-20.81,9.78-13.57,19.56,19.76,19.28,39.16,38.99,56.51,60.49,6,7.43,24.45,29.72,25.05,37.99.95,12.94-14.93,27.6-27.07,19.02-28.14-37.75-59.2-73.37-94.94-104.06-12.85-11.03-29-21.12-41.03-31.97-7.41-6.69-7.68-13.65-1.51-21.53,6.55-8.37,16.4-10.73,25.86-5.82,10.51,5.45,25.76,26.68,37.71,15.39,18.46-17.46-24.04-27.51-24.13-43.04-.09-14.71,19.26-23.3,32.02-14.95,34.89,22.82,75.98,63.1,103.04,94.96,7.01,8.25,30.69,36.45,33.07,44.92,3.78,13.47-11.24,29.69-24.32,23.33ZM301.49,330.35c-4.47-7.73-14.6-19.38-24.21-11.68-1.36,1.09-4.6,6.78-4.85,8.65-1.81,13.24,25.48,27.77,22.5,46.49-1.52,9.52-15.36,20.3-24.85,14.97-4.29-2.41-19.4-25.12-24.11-30.89-33.84-41.46-73.13-78.14-116.5-109.5-9.51-11.5,6.35-27.97,19.01-27.06,7.32.53,27.31,16.76,33.99,22.05,21.92,17.37,43.27,37.24,62.02,57.98,10.81,7.29,23.36.2,20.3-13.3-1.12-4.92-24.98-27.8-30.26-32.73-15.37-14.37-32.07-27.33-48.51-40.47,13.37-9.14,26.12-19.18,42.97-12.99,30.63,11.25,62.34,41.71,78.18,69.82,13.62,24.16,13.2,37.33-5.67,58.65Z"/>
</svg>