<?xml version="1.0" encoding="UTF-8"?>
<svg id="Layer_1" data-name="Layer 1" xmlns="http://www.w3.org/2000/svg" viewBox="0 0 515.58 323.67">
  <g>
    <path d="M415.76,87.02c15.91-3.64,18.98,17.22,7.32,20.31-16.85,4.46-18.1-17.84-7.32-20.31Z"/>
    <path d="M415.76,130.02c15.91-3.64,18.98,17.22,7.32,20.31-16.85,4.46-18.1-17.84-7.32-20.31Z"/>
    <path d="M415.76,173.02c15.91-3.64,18.98,17.22,7.32,20.31-16.85,4.46-18.1-17.84-7.32-20.31Z"/>
    <path d="M415.76,216.02c15.91-3.64,18.98,17.22,7.32,20.31-16.85,4.46-18.1-17.84-7.32-20.31Z"/>
  </g>
  <path d="M260.82,280c14.67-2.12,16.84,20.75,2.61,21.76s-15.66-19.88-2.61-21.76Z"/>
  <g>
    <path d="M93.78,87.04c19.04-3.87,17.52,26.39-1.46,19.99-9.06-3.06-8.23-18.02,1.46-19.99Z"/>
    <path d="M93.78,130.04c19.04-3.87,17.52,26.39-1.46,19.99-9.06-3.06-8.23-18.02,1.46-19.99Z"/>
    <path d="M93.78,173.04c19.04-3.87,17.52,26.39-1.46,19.99-9.06-3.06-8.23-18.02,1.46-19.99Z"/>
    <path d="M93.78,216.04c19.04-3.87,17.52,26.39-1.46,19.99-9.06-3.06-8.23-18.02,1.46-19.99Z"/>
    <path d="M507.57.78c-8.04-.93-41.63-1.22-48.8.25-10.52,2.15-28.72,16.67-40,20-1.05.31-2.03.89-3.2.8l-318.25-.8c-11.24-3.55-29.56-17.86-40-20C50.06-.46,17.7-.13,9.49.74,4.79,1.23,2.15,3.32.53,7.78l-.53,304.58c.06,5.15,3.36,9.8,8.51,10.49,8.02,1.09,40.15,1.12,47.98-.11,10.12-1.59,29.77-16.89,40.84-20.16,1.05-.31,2.03-.89,3.2-.8l120.79-.21c7.5-1.36,11.47-10.1,7.2-16.72-.84-1.3-5.96-5.04-6.96-5.04h-114.5v-14.5c0-4.12-7.66-6.9-11.5-6.54-14.85,1.38-6.67,20.45-10.42,25.62l-21.08,10.42V28.8l21.08,10.42c3.75,5.17-4.43,24.24,10.42,25.62,3.84.36,11.5-2.42,11.5-6.54v-14.5h302v14.5c0,4.55,8.35,7.03,12.43,6.44,14.07-2.05,5.55-20.08,9.49-25.52l21.08-10.42v266l-21.08-10.42c-3.95-5.44,4.58-23.47-9.49-25.52-4.08-.59-12.43,1.89-12.43,6.44v14.5h-105.5c-1,0-6.12,3.74-6.96,5.04-4.28,6.62-.3,15.36,7.2,16.72l111.79.21c1.17-.09,2.14.49,3.2.8,11.07,3.27,30.72,18.57,40.84,20.16,8.49,1.33,39.06,1.13,47.96.08,4.64-.54,6.33-2.86,8.01-6.99V7.77c-1.67-4.09-3.34-6.45-8.01-6.99ZM43.05,301.8h-20.5l-1.5-1.5V23.3l1.5-1.5h20.5v280ZM495.05,300.3l-1.5,1.5h-20.5V21.8h20.5l1.5,1.5v277Z"/>
  </g>
</svg>