<?xml version="1.0" encoding="UTF-8"?>
<svg id="Capa_1" data-name="Capa 1" xmlns="http://www.w3.org/2000/svg" viewBox="0 0 452.63 452.7">
  <path d="M360.05,148.48v273.5c0,8.07-12.02,21.46-19.73,24.27-22.23,8.12-26.93-4.3-43.04-11.51-16.86-7.54-23.45,5.44-36.72,11.75-19.32,9.18-40.51,7.65-58.82-3.21-12.43-7.38-17.06-16.38-33.39-6.99-14.79,8.5-16.48,14.96-36.77,16.23-22.98,1.44-29.58-5.73-46.85-16.23-17.96-10.91-25.84,4.17-40.34,10.05C21.44,455.63.91,439.77,0,416.02V78.93C.34,44.06,19.15,8.33,55.8,1.73l322.79-.21c91.14-19.07,99.36,147.48,17.84,154.83-12.97,1.17-24.58-3.5-36.38-7.88ZM389.79,36.16c-1.62.73-3.44,0-5.01.54-12.92,4.43-21.59,23.48-22.72,36.29-3.99,45.24,44.06,71.63,54.71,19.71,3.84-18.71-.31-56.91-25.36-58.24-1.73-.09-1.23,1.52-1.62,1.7ZM337.05,36.48H59.55c-.47,0-6.51,3.69-7.52,4.48-9.89,7.69-16.98,24.72-16.98,37.02v331.5c4.72-.3,8.8-4.39,13.12-6.38,18.84-8.67,36.57-7.02,54.21,3.54,3.03,1.81,5.51,5.27,9.11,6.89,26.07,11.71,40.03-13.84,65.18-15.92,29.24-2.42,38.38,19.72,59.89,18.92,14.47-.54,24.16-12.48,37.5-16.52,19.91-6.03,36.4-.66,52.97,10.47V67.98c0-1.79,2.09-9.86,2.72-12.28,1.73-6.62,4.77-12.9,7.28-19.22Z"/>
  <path d="M99.79,73.72h105.52c17.32,6.23,16.25,32.75-3.77,34.75-31.95,3.19-69.25-2.17-101.75-.23-17.2-2.89-16.87-31.14,0-34.52Z"/>
  <path d="M247.65,77.06c5.29-3.47,7.7-4.81,14.67-3.35,2.7.56,11.42,6.51,13.26,8.74,9.88,11.91-3.14,29.86-17.08,28.09-6.31-.8-17.84-8.09-19.23-14.78-2.05-9.93.83-13.74,8.37-18.69Z"/>
</svg>