<?xml version="1.0" encoding="UTF-8"?>
<svg id="Layer_1" data-name="Layer 1" xmlns="http://www.w3.org/2000/svg" viewBox="0 0 500.14 500">
  <path d="M261,.22c119.59,5.1,221.56,98.57,236.93,217.23,1.13,8.74,3.78,31.34.96,38.8-4.12,10.87-19.02,13.7-27.16,5.38-6.58-6.73-4.21-15.9-4.74-24.25-8.1-128.94-126.5-223.64-254.59-201.01-53.42,9.44-101.78,39.51-134.9,82.06-.2,1.1.44.75,1.19.69,8.12-.6,25.73-3.2,32.47.14,11.89,5.88,11.71,23.41-.06,29.26-3.32,1.65-7.19,1.81-10.86,2.14-14.88,1.33-30.51,1.72-45.49,2.51-4.69.25-9.02,1.72-13.6.09-7.41-2.64-11.63-7.91-12.18-15.81-1.41-20.24,1.12-42.1,0-62.51.99-13.81,17.41-20.83,27.78-11.24,2.09,1.94,5.24,7.49,5.24,10.26v12.24c17.25-18.74,36.3-35.29,58.04-48.69C155.49,15.64,197.79,2.07,239.5.22c6.74-.3,14.76-.29,21.5,0Z"/>
  <path d="M0,247.11c5.22-19.23,31.47-17.41,33.02,3.23.3,4.04-.27,8.43-.01,12.51,8.1,128.91,126.47,223.64,254.59,201.01,53.43-9.44,101.78-39.51,134.9-82.06.2-1.1-.44-.75-1.19-.69-8.21.61-26.03,3.28-32.78-.33-11.51-6.17-11.39-23.22.36-29.06,4.93-2.45,11.01-1.75,16.35-2.15,14.07-1.05,28.95-2.58,42.98-3.01,12.38-.38,20.52,2.33,22.79,15.75-1.23,20.31,1.58,42.42,0,62.51-1.11,14.1-16.72,21.46-27.52,11.98-2.23-1.95-5.5-7.61-5.5-10.5v-12.24c-17.25,18.72-36.31,35.29-58.04,48.69-35.32,21.77-76.54,35.16-118.25,36.76l-1.21.52h-21.5C113.71,498.82,1.18,386.34,0,261.1v-13.99Z"/>
  <path d="M273.52,211.6l71.32,23.92c8.92,4.92,11.6,16.32,5.42,24.59l-148.26,148.18c-12.21,9.31-29.1-.93-26.28-16.27l50.76-103.41-71.32-23.92c-8.92-4.92-11.6-16.32-5.42-24.59l148-147.93c11.91-9.63,29.07.28,26.64,15.63-15.94,34.37-33.74,67.95-50.49,101.97l-.37,1.84Z"/>
</svg>